<?xml version="1.0" standalone="no"?><!DOCTYPE svg PUBLIC "-//W3C//DTD SVG 1.1//EN" "http://www.w3.org/Graphics/SVG/1.1/DTD/svg11.dtd"><svg t="1748929549188" class="icon" viewBox="0 0 1024 1024" version="1.1" xmlns="http://www.w3.org/2000/svg" p-id="54631" xmlns:xlink="http://www.w3.org/1999/xlink" width="200" height="200"><path d="M412.629333 137.642667A61.781333 61.781333 0 0 1 298.666667 104.533333a61.824 61.824 0 0 1 116.608-28.586666c35.072 0.853333 63.018667 6.528 84.650666 17.664 25.045333 12.842667 39.68 31.957333 47.061334 53.632 6.869333 20.053333 7.082667 41.216 6.698666 58.026666l-0.213333 8.106667H742.4A153.6 153.6 0 0 1 896 366.933333v375.466667a153.6 153.6 0 0 1-153.6 153.6H281.6A153.6 153.6 0 0 1 128 742.4V366.933333A153.6 153.6 0 0 1 281.6 213.333333h210.005333l0.298667-9.557333c0.384-16.128-0.341333-27.690667-3.413333-36.608-2.474667-7.296-6.741333-13.44-16.768-18.602667-10.581333-5.461333-28.586667-10.24-59.093334-10.922666zM742.4 298.666667H281.6A68.266667 68.266667 0 0 0 213.333333 366.933333v375.466667A68.266667 68.266667 0 0 0 281.6 810.666667h460.8a68.266667 68.266667 0 0 0 68.266667-68.266667V366.933333A68.266667 68.266667 0 0 0 742.4 298.666667z m-63.146667 325.973333a30.72 30.72 0 1 0-57.984-20.309333c-9.941333 28.416-25.258667 35.84-38.570666 37.845333-16.426667 2.474667-35.242667-3.072-47.445334-9.642667a30.72 30.72 0 1 0-29.312 53.973334c19.712 10.666667 52.138667 21.461333 85.76 16.469333 36.778667-5.504 70.4-29.226667 87.552-78.378667zM358.442667 460.8a51.2 51.2 0 0 1 102.4 0V512a51.2 51.2 0 1 1-102.4 0v-51.2zM614.4 409.6a51.2 51.2 0 0 0-51.2 51.2v51.2a51.2 51.2 0 1 0 102.4 0v-51.2a51.2 51.2 0 0 0-51.2-51.2zM0 469.333333a42.666667 42.666667 0 1 1 85.333333 0v170.666667a42.666667 42.666667 0 1 1-85.333333 0v-170.666667z m981.333333-42.666666a42.666667 42.666667 0 0 0-42.666666 42.666666v170.666667a42.666667 42.666667 0 0 0 85.333333 0v-170.666667a42.666667 42.666667 0 0 0-42.666667-42.666666z" p-id="54632" fill="#1296db"></path></svg>